<svg width="31" height="31" viewBox="0 0 31 31" fill="none" xmlns="http://www.w3.org/2000/svg">
<path d="M16.8709 30.0834H14.1147C13.4649 30.0834 12.8417 29.8253 12.3823 29.3658C11.9228 28.9064 11.6647 28.2832 11.6647 27.6334V26.0438C11.6568 25.9502 11.6224 25.8607 11.5656 25.7858C11.5088 25.7109 11.4319 25.6538 11.3438 25.6209C11.2546 25.5637 11.1508 25.5334 11.0449 25.5334C10.9389 25.5334 10.8351 25.5637 10.7459 25.6209L9.66675 26.7876C9.44038 27.0155 9.17115 27.1965 8.87456 27.3199C8.57797 27.4434 8.25988 27.5069 7.93862 27.5069C7.61736 27.5069 7.29928 27.4434 7.00269 27.3199C6.7061 27.1965 6.43687 27.0155 6.2105 26.7876L4.21258 24.8334C3.98132 24.6075 3.79765 24.3375 3.67241 24.0395C3.54718 23.7414 3.48292 23.4213 3.48341 23.098C3.48435 22.4367 3.74641 21.8025 4.21258 21.3334L5.29175 20.2542C5.34385 20.1739 5.37157 20.0802 5.37157 19.9845C5.37157 19.8887 5.34385 19.795 5.29175 19.7147C5.20425 19.4959 5.05841 19.3355 4.85425 19.3355H3.36675C2.71563 19.3316 2.09249 19.0703 1.63344 18.6085C1.17439 18.1467 0.916737 17.522 0.916748 16.8709V14.1147C0.916748 13.4649 1.17487 12.8417 1.63434 12.3823C2.0938 11.9228 2.71697 11.6647 3.36675 11.6647H4.95633C5.04998 11.6568 5.13946 11.6224 5.21434 11.5656C5.28922 11.5088 5.34641 11.4319 5.37925 11.3438C5.43642 11.2546 5.4668 11.1508 5.4668 11.0449C5.4668 10.9389 5.43642 10.8351 5.37925 10.7459L4.21258 9.66675C3.98462 9.44038 3.8037 9.17115 3.68024 8.87456C3.55678 8.57797 3.49322 8.25988 3.49322 7.93862C3.49322 7.61736 3.55678 7.29928 3.68024 7.00269C3.8037 6.7061 3.98462 6.43687 4.21258 6.2105L6.16675 4.21258C6.39045 3.98241 6.65795 3.79933 6.95348 3.6741C7.24901 3.54888 7.56661 3.48404 7.88758 3.48341C8.21752 3.48197 8.54451 3.54563 8.84981 3.67075C9.15511 3.79587 9.43272 3.98 9.66675 4.21258L10.7459 5.29175C10.8263 5.34385 10.92 5.37157 11.0157 5.37157C11.1115 5.37157 11.2052 5.34385 11.2855 5.29175C11.5042 5.20425 11.6647 5.05841 11.6647 4.85425V3.36675C11.6685 2.71563 11.9299 2.09249 12.3917 1.63344C12.8534 1.17439 13.4781 0.916737 14.1292 0.916748H16.9584C17.6082 0.916748 18.2314 1.17487 18.6908 1.63434C19.1503 2.0938 19.4084 2.71697 19.4084 3.36675V4.95633C19.4163 5.04998 19.4507 5.13946 19.5075 5.21434C19.5643 5.28922 19.6412 5.34641 19.7292 5.37925C19.8185 5.43642 19.9222 5.4668 20.0282 5.4668C20.1342 5.4668 20.2379 5.43642 20.3272 5.37925L21.3334 4.21258C21.5598 3.98462 21.829 3.8037 22.1256 3.68024C22.4222 3.55678 22.7403 3.49322 23.0615 3.49322C23.3828 3.49322 23.7009 3.55678 23.9975 3.68024C24.2941 3.8037 24.5633 3.98462 24.7897 4.21258L26.7876 6.16675C27.0182 6.39316 27.2014 6.66322 27.3266 6.96116C27.4518 7.25911 27.5164 7.57899 27.5167 7.90216C27.5238 8.23072 27.4626 8.55716 27.3371 8.86088C27.2116 9.1646 27.0245 9.439 26.7876 9.66675L25.7084 10.7459C25.6563 10.8263 25.6286 10.92 25.6286 11.0157C25.6286 11.1115 25.6563 11.2052 25.7084 11.2855C25.7959 11.5042 25.9417 11.6647 26.1459 11.6647H27.7355C28.3687 11.6947 28.966 11.9675 29.4033 12.4265C29.8405 12.8855 30.0841 13.4953 30.0834 14.1292V16.9584C30.0834 17.6082 29.8253 18.2314 29.3658 18.6908C28.9064 19.1503 28.2832 19.4084 27.6334 19.4084H26.0438C25.9502 19.4163 25.8607 19.4507 25.7858 19.5075C25.7109 19.5643 25.6538 19.6412 25.6209 19.7292C25.5688 19.8096 25.5411 19.9033 25.5411 19.999C25.5411 20.0948 25.5688 20.1885 25.6209 20.2688L26.7438 21.3917C26.9718 21.6181 27.1527 21.8873 27.2762 22.1839C27.3996 22.4805 27.4632 22.7986 27.4632 23.1199C27.4632 23.4411 27.3996 23.7592 27.2762 24.0558C27.1527 24.3524 26.9718 24.6216 26.7438 24.848L24.8334 26.7876C24.6097 27.0177 24.3422 27.2008 24.0467 27.3261C23.7511 27.4513 23.4335 27.5161 23.1126 27.5167C22.4614 27.5082 21.839 27.2467 21.3772 26.7876L20.2542 25.7084C20.1739 25.6563 20.0802 25.6286 19.9845 25.6286C19.8887 25.6286 19.795 25.6563 19.7147 25.7084C19.4959 25.7959 19.3355 25.9417 19.3355 26.1459V27.7355C19.3055 28.3687 19.0326 28.966 18.5737 29.4033C18.1147 29.8405 17.5048 30.0841 16.8709 30.0834ZM14.5813 27.1667H16.4188V26.0438C16.425 25.3713 16.6307 24.7158 17.0097 24.1602C17.3887 23.6047 17.9241 23.1741 18.548 22.923C19.1745 22.6492 19.8683 22.5681 20.541 22.6902C21.2137 22.8123 21.8348 23.1319 22.3251 23.6084L23.1126 24.3959L24.3959 23.1126L23.6084 22.3105C23.1349 21.8276 22.8156 21.2149 22.691 20.5502C22.5663 19.8855 22.642 19.1988 22.9084 18.5772C23.1618 17.956 23.5933 17.4237 24.1487 17.0474C24.7041 16.6711 25.3584 16.4676 26.0292 16.4626H27.1667V14.5813H26.0438C25.3713 14.5751 24.7158 14.3695 24.1602 13.9905C23.6047 13.6114 23.1741 13.0761 22.923 12.4522C22.6492 11.8257 22.5681 11.1319 22.6902 10.4592C22.8123 9.78648 23.1319 9.16538 23.6084 8.67508L24.3959 7.88758L23.1126 6.60425L22.3105 7.39175C21.8201 7.83969 21.2119 8.13819 20.5576 8.2521C19.9032 8.366 19.2299 8.29056 18.617 8.03467C18.0041 7.77877 17.4771 7.35308 17.098 6.80771C16.7188 6.26234 16.5035 5.62 16.4772 4.95633V3.83341H14.5813V4.95633C14.5751 5.62884 14.3695 6.28438 13.9905 6.83993C13.6114 7.39549 13.0761 7.82607 12.4522 8.07716C11.8257 8.351 11.1319 8.43204 10.4592 8.30997C9.78648 8.1879 9.16538 7.86824 8.67508 7.39175L7.88758 6.60425L6.60425 7.88758L7.39175 8.68966C7.83969 9.18007 8.13819 9.78825 8.2521 10.4426C8.366 11.097 8.29056 11.7702 8.03467 12.3831C7.77877 12.9961 7.35308 13.5231 6.80771 13.9022C6.26234 14.2813 5.62 14.4967 4.95633 14.523H3.83341V16.3605H4.95633C5.62884 16.3667 6.28438 16.5723 6.83993 16.9514C7.39549 17.3304 7.82607 17.8658 8.07716 18.4897C8.351 19.1161 8.43204 19.8099 8.30997 20.4826C8.1879 21.1553 7.86824 21.7764 7.39175 22.2667L6.60425 23.0542L7.88758 24.3376L8.68966 23.5501C9.18007 23.1021 9.78825 22.8036 10.4426 22.6897C11.097 22.5758 11.7702 22.6513 12.3831 22.9072C12.9961 23.1631 13.5231 23.5887 13.9022 24.1341C14.2813 24.6795 14.4967 25.3218 14.523 25.9855L14.5813 27.1667Z" fill="#FAFAFA" fill-opacity="0.7"/>
</svg>
