<svg width="11" height="11" viewBox="0 0 11 11" fill="none" xmlns="http://www.w3.org/2000/svg">
<path d="M5.49992 10.6041C4.49041 10.6041 3.50357 10.3047 2.6642 9.74388C1.82482 9.18303 1.17061 8.38587 0.784286 7.4532C0.397964 6.52054 0.296884 5.49426 0.493829 4.50415C0.690775 3.51404 1.1769 2.60456 1.89073 1.89073C2.60456 1.1769 3.51404 0.690775 4.50415 0.493829C5.49426 0.296884 6.52054 0.397964 7.4532 0.784286C8.38587 1.17061 9.18303 1.82482 9.74388 2.6642C10.3047 3.50357 10.6041 4.49041 10.6041 5.49992C10.6041 6.85363 10.0663 8.1519 9.10911 9.10911C8.1519 10.0663 6.85363 10.6041 5.49992 10.6041ZM5.49992 3.31242C5.06728 3.31242 4.64435 3.44072 4.28461 3.68108C3.92488 3.92145 3.6445 4.26309 3.47894 4.6628C3.31337 5.06252 3.27005 5.50235 3.35445 5.92668C3.43886 6.35102 3.6472 6.74079 3.95313 7.04672C4.25905 7.35265 4.64883 7.56099 5.07316 7.64539C5.4975 7.7298 5.93733 7.68648 6.33704 7.52091C6.73676 7.35534 7.0784 7.07496 7.31876 6.71523C7.55913 6.3555 7.68742 5.93257 7.68742 5.49992C7.68742 4.91976 7.45695 4.36336 7.04672 3.95313C6.63648 3.54289 6.08008 3.31242 5.49992 3.31242Z" fill="#FAFAFA" fill-opacity="0.7"/>
</svg>
